<?xml version="1.0" standalone="no"?><!DOCTYPE svg PUBLIC "-//W3C//DTD SVG 1.1//EN" "http://www.w3.org/Graphics/SVG/1.1/DTD/svg11.dtd"><svg t="1717338904850" class="icon" viewBox="0 0 1024 1024" version="1.1" xmlns="http://www.w3.org/2000/svg" p-id="4287" xmlns:xlink="http://www.w3.org/1999/xlink" width="200" height="200"><path d="M972.8 342.3744v556.032c0 38.5024-29.696 70.4512-67.2768 74.0352l-7.1168 0.3584H125.5936c-38.5024 0-70.4512-29.696-74.0352-67.2768L51.2 898.4064V342.3744h921.6z m-151.6544 172.1856h-68.3008v267.7248h68.3008V514.56z m-447.2832 0H298.9568L202.8544 782.336h71.1168l15.1552-49.1008h89.3952l16.3328 49.1008h73.5232L373.8624 514.56z m243.2 0H494.6432v267.52h68.8128v-95.5904h55.808c29.952 0 53.0944-7.5264 69.0176-22.7328 16.0768-15.1552 24.064-37.0688 24.064-65.4848 0-27.0848-8.192-47.8208-24.3712-62.208-16.2304-14.336-39.7824-21.504-70.912-21.504z m-283.904 70.8096l29.7472 92.3648H304.4352l28.7232-92.3648z m229.5808-16.9472h44.7488c12.3904 0 21.5552 2.56 27.648 7.8336 6.144 5.2736 9.1136 13.2096 9.1136 23.9616 0 11.0592-2.9184 19.2512-8.8064 24.5248a34.1504 34.1504 0 0 1-20.224 7.5776l-7.0144 0.256h-45.4656v-64.1536h44.7488zM125.5936 51.2h772.8128c38.5024 0 70.4512 29.5424 74.0352 67.2256l0.3584 7.168v142.336H51.2v-142.336c0-38.5024 29.696-70.4512 67.2768-74.0352L125.5936 51.2h772.8128z m71.2704 67.072a41.3184 41.3184 0 1 0 0 82.6368 41.3184 41.3184 0 0 0 0-82.6368z m130.304 0a41.3184 41.3184 0 1 0 0 82.6368 41.3184 41.3184 0 0 0 0-82.6368z m130.2016 0a41.3184 41.3184 0 1 0 0 82.6368 41.3184 41.3184 0 0 0 0-82.6368z" fill="currentColor" p-id="4288"></path></svg>