<svg t="1718969268491" class="icon" viewBox="0 0 1024 1024" version="1.1" xmlns="http://www.w3.org/2000/svg" p-id="5191" width="64" height="64"><path d="M533.333333 105.557333a42.666667 42.666667 0 0 1 15.616 15.616l426.581334 738.730667a42.666667 42.666667 0 0 1-36.949334 64H85.418667a42.666667 42.666667 0 0 1-36.949334-64L475.050667 121.173333a42.666667 42.666667 0 0 1 58.282666-15.616z m-21.333333 36.949334L85.418667 881.237333h853.162666L512 142.506667zM533.333333 725.333333a21.333333 21.333333 0 0 1 21.333334 21.333334v42.666666a21.333333 21.333333 0 0 1-21.333334 21.333334h-42.666666a21.333333 21.333333 0 0 1-21.333334-21.333334v-42.666666a21.333333 21.333333 0 0 1 21.333334-21.333334h42.666666z m0-341.333333a21.333333 21.333333 0 0 1 21.333334 21.333333v256a21.333333 21.333333 0 0 1-21.333334 21.333334h-42.666666a21.333333 21.333333 0 0 1-21.333334-21.333334v-256a21.333333 21.333333 0 0 1 21.333334-21.333333h42.666666z" fill="currentColor" p-id="5192"></path></svg>