<?xml version="1.0" standalone="no"?><!DOCTYPE svg PUBLIC "-//W3C//DTD SVG 1.1//EN" "http://www.w3.org/Graphics/SVG/1.1/DTD/svg11.dtd"><svg t="1717058030982" class="icon" viewBox="0 0 1024 1024" version="1.1" xmlns="http://www.w3.org/2000/svg" p-id="3841" xmlns:xlink="http://www.w3.org/1999/xlink" width="200" height="200"><path d="M567.5 249.9c0 17.9-15.7 33.6-33.6 33.6H310.1c-17.9 0-33.6-15.7-33.6-33.6 0-17.9 15.7-33.6 33.6-33.6H534c17.9 0 33.5 13.5 33.5 33.6z m0 0" fill="#333333" p-id="3842"></path><path d="M914.5 238.7c-29.1-26.9-78.4-69.4-94-85.1-8.9-8.9-26.9-13.4-40.3 0-13.4 13.4-6.7 29.1 2.2 38.1 11.2 11.2 35.8 33.6 53.7 51.5 2.2 2.2 2.2 2.2 2.2 4.5 0 2.2 0 4.5-2.2 4.5-13.4 15.7-33.6 31.3-47 44.8-4.5 2.2-6.7 6.7-6.7 13.4 0 9 6.7 15.7 15.7 15.7h67.2c4.5 0 6.7 4.5 6.7 4.5v465.6c0 26.9-13.4 33.6-29.1 33.6-15.7 0-29.1-9-29.1-33.6V415.6c0-33.6-4.5-49.2-42.5-51.5h-69.4V122.3c0-31.3-26.9-58.2-58.2-58.2H195.9c-31.3 0-58.2 26.9-58.2 58.2v770.1h-31.3c-13.4 0-24.6 11.2-24.6 24.6v17.9c0 13.4 11.2 24.6 24.6 24.6h629c13.4 0 24.6-11.2 24.6-24.6V917c0-13.4-11.2-24.6-24.6-24.6h-31.3V420.1h40.3c13.4 0 15.7 13.4 15.7 13.4v369.4c0 94 78.4 94 85.1 94 11.2 0 85.1 0 85.1-94V263.4c-0.1 0-2.4-11.2-15.8-24.7zM634.7 854.3c0 22.4-17.9 38.1-38.1 38.1H245.2c-22.4 0-38.1-17.9-38.1-38.1v-685c0-22.4 17.9-38.1 38.1-38.1h351.5c22.4 0 38.1 17.9 38.1 38.1v685z m0 0" fill="#333333" p-id="3843"></path></svg>